<svg id="svg-source" height="0" version="1.1" 
  xmlns="http://www.w3.org/2000/svg" style="position:absolute; margin-left: -100%" 
  xmlns:xlink="http://www.w3.org/1999/xlink">
  <g id="chemistry" data-iconmelon="Brainy Icons:77a7ef0eebbfdc8d687806cf7f109038">
    <path fill-rule="evenodd" clip-rule="evenodd" d="M31.996,16.799c-0.036-1.377-0.852-2.552-2.146-2.924
	c-0.952-0.274-1.944-0.27-2.904,0.02c-0.434,0.131-0.844,0.342-1.263,0.521c-0.464,0.198-0.86,0.469-1.044,0.972
	c-0.073,0.199-0.207,0.245-0.411,0.171c-0.991-0.358-2.005-0.624-3.056-0.736c-0.14-0.015-0.276-0.046-0.414-0.073
	c-0.361-0.07-0.631-0.233-0.78-0.605c-0.224-0.554-0.524-1.07-0.911-1.53c-0.594-0.707-1.352-1.099-2.28-1.134
	c-0.28-0.011-0.562-0.01-0.841,0.004c-0.288,0.014-0.453-0.129-0.566-0.375c-0.338-0.734-0.584-1.492-0.751-2.288
	c-0.216-1.029-0.054-1.021,0.546-1.361c0.031-0.017,0.061-0.034,0.09-0.055c0.866-0.594,1.361-1.394,1.365-2.465
	c0.001-0.28,0.015-0.562,0.006-0.842c-0.042-1.478-0.779-2.501-2.074-3.157c-0.344-0.174-0.691-0.336-1.031-0.516
	c-0.388-0.205-0.783-0.288-1.213-0.159c-0.369,0.11-0.738,0.218-1.11,0.316c-0.563,0.149-0.997,0.487-1.385,0.91
	C9.338,2.02,8.974,2.602,8.869,3.326C8.833,3.568,8.736,3.801,8.703,4.042c-0.217,1.542,0.071,2.839,1.722,3.691
	c0.63,0.325,1.265,0.597,1.962,0.714c0.232,0.04,0.366,0.15,0.422,0.392c0.163,0.715,0.336,1.429,0.521,2.139
	c0.375,1.436,0.625,1.085-0.71,1.826c-1.017,0.565-1.534,1.381-1.7,2.491c-0.093,0.625-0.168,1.249-0.154,1.882
	c0.002,0.147-0.07,0.282-0.21,0.335c-0.59,0.221-1.178,0.449-1.778,0.638c-0.467,0.146-0.961,0.205-1.422,0.362
	c-0.338,0.115-0.576,0.103-0.851-0.156c-0.579-0.547-1.274-0.857-2.091-0.845c-0.104,0.002-0.209-0.02-0.313-0.035
	c-0.999-0.143-1.866,0.153-2.625,0.797c-0.69,0.585-1.123,1.327-1.351,2.203c-0.379,1.456,0.112,2.683,1.355,3.537
	c1.037,0.715,2.118,0.69,3.195,0.233c0.945-0.401,1.709-1.096,2.356-1.893c0.215-0.265,0.356-0.604,0.476-0.929
	c0.082-0.224,0.084-0.482,0.09-0.726c0.006-0.244,0.113-0.399,0.326-0.486c0.973-0.394,1.945-0.789,2.923-1.171
	c0.172-0.067,0.371-0.021,0.467,0.146c0.577,1.012,1.565,1.471,2.56,1.918c0.223,0.1,0.52,0.107,0.676,0.264
	c0.216,0.218-0.016,0.521-0.036,0.787c-0.032,0.452-0.13,0.9-0.202,1.35c-0.047,0.293-0.092,0.34-0.387,0.402
	c-0.205,0.043-0.412,0.082-0.616,0.125c-1.118,0.234-1.837,0.97-2.373,1.918c-0.116,0.207-0.172,0.46-0.201,0.699
	c-0.034,0.276-0.008,0.56-0.008,0.84c-0.029,0.003-0.058,0.006-0.086,0.009c0.089,0.587,0.175,1.174,0.267,1.761
	c0.172,1.122,0.852,1.805,1.89,2.179c0.667,0.24,1.372,0.323,2.063,0.354c0.781,0.034,1.541-0.168,2.094-0.795
	c0.37-0.419,0.705-0.869,1.057-1.304c0.686-0.845,0.852-1.817,0.738-2.87c-0.047-0.432-0.184-0.818-0.441-1.162
	c-0.38-0.508-0.773-1.001-1.391-1.244c-0.341-0.134-0.471-0.405-0.451-0.752c0.021-0.383,0.066-0.766,0.088-1.149
	c0.025-0.49,0.023-0.981,0.064-1.47c0.01-0.113,0.122-0.262,0.228-0.315c0.56-0.288,1.119-0.584,1.703-0.813
	c0.556-0.218,0.944-0.596,1.242-1.082c0.293-0.479,0.52-0.99,0.628-1.55c0.058-0.295,0.139-0.361,0.427-0.33
	c1.077,0.116,2.153,0.249,3.229,0.382c0.196,0.025,0.299,0.159,0.319,0.354c0.019,0.175,0.021,0.351,0.053,0.523
	c0.148,0.804,0.524,1.444,1.302,1.791c0.447,0.198,0.889,0.417,1.347,0.585c1.702,0.627,3.663-0.353,4.422-1.58
	c0.283-0.457,0.476-0.935,0.48-1.477C31.999,17.289,32.003,17.044,31.996,16.799z M5.098,21.418c-0.182,0.172-0.38,0.284-0.42,0.193
	c-0.054-0.122-0.096-0.258-0.104-0.39c-0.014-0.207,0.006-0.416,0.01-0.625c0.004-0.179-0.026-0.349-0.197-0.448
	c-0.224-0.131-0.392-0.006-0.552,0.138c-0.053,0.046-0.103,0.095-0.158,0.136c-0.025,0.02-0.08,0.04-0.093,0.028
	c-0.041-0.036-0.101-0.092-0.096-0.133c0.017-0.137,0.057-0.271,0.067-0.318c0.084-0.808,0.111-0.833,0.809-0.781
	c0.172,0.013,0.354,0.021,0.512,0.082c0.343,0.133,0.589,0.363,0.604,0.766C5.498,20.558,5.498,21.039,5.098,21.418z M14.304,5.064
	c-0.204,0.517-0.479,0.699-1.032,0.687c-0.139-0.003-0.28-0.005-0.415-0.032c-0.288-0.06-0.499-0.224-0.632-0.493
	c-0.208-0.421-0.212-0.873-0.224-1.382c-0.099-0.431,0.05-0.825,0.423-1.155c0.379-0.335,0.892-0.439,1.351-0.212
	c0.428,0.211,0.725,0.53,0.734,1.048C14.52,4.049,14.5,4.568,14.304,5.064z M17.041,27.692c-0.056,0.236-0.142,0.468-0.239,0.689
	c-0.192,0.438-0.749,0.756-1.201,0.651c-0.762-0.176-1.46-0.467-1.897-1.183c-0.297-0.486-0.313-1.009,0.012-1.469
	c0.119-0.169,0.268-0.32,0.42-0.462c0.23-0.213,0.527-0.127,0.798-0.145c0.427-0.032,0.837,0.042,1.228,0.211
	C16.85,26.286,17.209,26.974,17.041,27.692z M17.679,18.189c-0.22,0.17-0.46,0.315-0.702,0.451
	c-0.436,0.245-0.572,0.226-0.936-0.085c-0.399-0.343-0.417-0.436-0.14-0.854c0.116-0.173,0.24-0.341,0.366-0.507
	c0.089-0.117,0.165-0.254,0.035-0.361c-0.097-0.079-0.257-0.142-0.375-0.124c-0.262,0.041-0.514,0.135-0.771,0.207
	c0.001,0.006-0.001,0.011,0,0.016c-0.006,0.002-0.013,0.003-0.02,0.004c-0.019,0.042-0.038,0.085-0.058,0.127
	c-0.111-0.12-0.012-0.114,0.058-0.127c0.003-0.005,0.005-0.011,0.007-0.016c0.005-0.001,0.008-0.003,0.013-0.004
	c-0.043-0.418,0.238-0.696,0.452-0.998c0.119-0.168,0.289-0.3,0.43-0.454c0.219-0.242,0.02-0.594-0.26-0.636
	c-0.197-0.03-0.408,0.03-0.613,0.042c-0.056,0.004-0.143,0-0.165-0.033c-0.032-0.049-0.042-0.139-0.019-0.192
	c0.098-0.222,0.195-0.449,0.328-0.649c0.069-0.104,0.207-0.203,0.327-0.223c1.019-0.162,2.167,0.399,2.67,1.287
	C18.865,16.043,18.578,17.493,17.679,18.189z M30.445,17.712c-0.24,0.669-0.687,1.12-1.444,1.16
	c-0.208,0.012-0.417,0.017-0.625,0.012c-0.542-0.015-0.707-0.117-0.714-0.675c-0.006-0.651,0.056-1.312,0.259-1.95
	c0.157-0.494,0.467-0.833,0.899-1.094c0.2-0.122,0.389-0.12,0.592-0.04c0.033,0.013,0.064,0.025,0.097,0.04
	c0.796,0.359,1.078,0.823,1.047,1.888C30.538,17.166,30.537,17.455,30.445,17.712z"></path>
  </g>
</svg>